<svg xmlns="http://www.w3.org/2000/svg" xmlns:xlink="http://www.w3.org/1999/xlink" width="1101" height="982" viewBox="0 0 1101 982">
  <defs>
    <linearGradient id="linear-gradient" y1="0.5" x2="1" y2="0.5" gradientUnits="objectBoundingBox">
      <stop offset="0" stop-color="#fff"/>
      <stop offset="0.09" stop-color="#ffedd8"/>
      <stop offset="0.21" stop-color="#ffd5a7"/>
      <stop offset="0.33" stop-color="#ffc17d"/>
      <stop offset="0.46" stop-color="#ffb05b"/>
      <stop offset="0.59" stop-color="#ffa340"/>
      <stop offset="0.72" stop-color="#ff9a2d"/>
      <stop offset="0.86" stop-color="#ff9522"/>
      <stop offset="1" stop-color="#ff931e"/>
    </linearGradient>
    <linearGradient id="linear-gradient-2" x1="0.182" y1="0.324" x2="0.865" y2="0.831" gradientUnits="objectBoundingBox">
      <stop offset="0.41" stop-color="#322c3a" stop-opacity="0.302"/>
      <stop offset="1" stop-color="#56c8c9"/>
    </linearGradient>
    <linearGradient id="linear-gradient-3" x1="0.588" y1="0.144" x2="0.416" y2="1.114" gradientUnits="objectBoundingBox">
      <stop offset="0" stop-opacity="0.302"/>
      <stop offset="0.92" stop-color="#fff" stop-opacity="0.302"/>
    </linearGradient>
    <linearGradient id="linear-gradient-4" y1="0.5" x2="1" y2="0.5" gradientUnits="objectBoundingBox">
      <stop offset="0.1" stop-color="#fff"/>
      <stop offset="0.19" stop-color="#f3f8fb"/>
      <stop offset="0.35" stop-color="#d2e4f1"/>
      <stop offset="0.57" stop-color="#9dc4e1"/>
      <stop offset="0.83" stop-color="#5598cc"/>
      <stop offset="1" stop-color="#2279bc"/>
    </linearGradient>
  </defs>
  <g id="Group_72" data-name="Group 72" transform="translate(-819 7)">
    <circle id="Ellipse_153" data-name="Ellipse 153" cx="114" cy="114" r="114" transform="translate(1606 110)" fill="#29abe2"/>
    <circle id="Ellipse_154" data-name="Ellipse 154" cx="127.5" cy="127.5" r="127.5" transform="translate(877 20)" fill="#29abe2"/>
    <path id="Path_516" data-name="Path 516" d="M1101,79S917,190,908,235s-3,106,51,146,109,90,112,100,24,52-60,85-148,18.71-171,42.36S785,722,713,728s-119-73-119-73-46-76-52-97-51-160-48-211-120,52-177,70c0,0-159,57-231-9s8-209,8-209S155,88,107,45,0,0,0,0H1101Z" transform="translate(819 -7)" fill="#322c3a"/>
    <rect id="Rectangle_465" data-name="Rectangle 465" width="116" height="342" transform="translate(1547 574)" fill="#cb8971"/>
    <path id="Path_517" data-name="Path 517" d="M727.5,622.62h116L843,575H727Z" transform="translate(819)" fill="#8d694f"/>
    <path id="Path_518" data-name="Path 518" d="M484,668.5l-16.95,2.79L465,726.5l46-5v-58Z" transform="translate(819)" fill="#332b3a"/>
    <rect id="Rectangle_466" data-name="Rectangle 466" width="232" height="55" transform="translate(1432.5 908.5)" fill="#cb886e"/>
    <path id="Path_519" data-name="Path 519" d="M612.5,574.5h334v-23h-334Z" transform="translate(819)" fill="#ad7964" stroke="#42210b" stroke-miterlimit="10" stroke-width="1"/>
    <path id="Path_520" data-name="Path 520" d="M637.5,539.5h137l84-146,6,3-86,146-.5,9H637.5Z" transform="translate(819)" fill="#fff"/>
    <path id="Path_521" data-name="Path 521" d="M849.5,501.5h58v30s-1.71,17-11.86,20-34.71,0-34.71,0A20.32,20.32,0,0,1,853,546a20,20,0,0,1-4-7,7.581,7.581,0,0,1-3.5.5c-8.38-.9-16.28-17.75-11-24,3.5-4.15,11.87-2.48,14-2Z" transform="translate(819)" fill="url(#linear-gradient)"/>
    <path id="Path_522" data-name="Path 522" d="M839,527.5c-3-6.63,0-12,9-9v13S841.5,533,839,527.5Z" transform="translate(819)" fill="#322c3a"/>
    <path id="Path_523" data-name="Path 523" d="M417.5,943.5c6,6,12,8,20,5s0,14-5,13-15,0-15,0-30-46-36-45-10-9,5-27,31-35,31-56,7-58,13-64,23.47-30.72,34.23-36.36,50.91-34.88,63.84-33.26,25.93,5.62,23.93,23.62-5,19-13,30-24,15-34,23-62,63-70,74-36,51-27,72Z" transform="translate(819)" fill="#a27a6d"/>
    <path id="Path_524" data-name="Path 524" d="M489.5,937.5s-14,21,0,22a49.89,49.89,0,0,0,25-5s12,0,21,5,30,0,30,0A7.821,7.821,0,0,0,569,957c1.7-2.19,2.38-5.7,1-7s-4.41-.12-4.5-.5,2.61-.64,3.5-2.5a4.28,4.28,0,0,0,0-3,7.18,7.18,0,0,0-3-4c-2.2-1.48-5.39-2-6-1a1.17,1.17,0,0,0,0,1c.21,1.44.67,5.65-1.66,7.37-1.6,1.18-3.76.75-5.84.13-10-3-20,3-26-14s-10-24-11-56-1-99,1-108,6-52,10-63,13-50,10-61-8-18-21-18h-32s-41,62-24,66,29-8,29-8-27,47-27,60-14,31,5,68,25,37,25,74S493.5,931.5,489.5,937.5Z" transform="translate(819)" fill="#db8c8f"/>
    <rect id="Rectangle_467" data-name="Rectangle 467" width="298" height="4" transform="translate(1131.5 296.5)" fill="#f88686"/>
    <path id="Path_525" data-name="Path 525" d="M321.5,961.5c4-16,23-32,55-28s34,33,34,33h-89Z" transform="translate(819)" fill="#312d3e"/>
    <path id="Path_526" data-name="Path 526" d="M366.5,745.5h10v187l-10,.38Z" transform="translate(819)" fill="#392e3f"/>
    <path id="Path_527" data-name="Path 527" d="M853.91,400.47,736.5,246.5l-244,263,181,36h99Z" transform="translate(819)" fill="url(#linear-gradient-2)"/>
    <path id="Path_528" data-name="Path 528" d="M270.5,745.5s-30-11-37-33,14-104,14-104,11-58,4-81-15-22-19-41,38-6,38-6,26,25,20,63,5,59-20,67-16,17-16,17-21,66-9,82,3,12,25,24S270.5,745.5,270.5,745.5Z" transform="translate(819)" fill="#302c3a"/>
    <path id="Path_529" data-name="Path 529" d="M536.5,481.5s15,26,19,36,0,7,0,7a159.762,159.762,0,0,1,45-7c24,0,45-4,57,0s-114,58-133,29S536.5,481.5,536.5,481.5Z" transform="translate(819)" fill="#734375"/>
    <path id="Path_530" data-name="Path 530" d="M546.05,440.87,542.5,497.5l4,46s59-16,78-26c1.22-.64,5.75-4.9,13-8.65,5.14-2.66,11.74-6.08,20.52-6.85,9.67-.85,12.39,2.37,16.5-.5,5.41-3.78,5-12.4,8.5-12.5,1.29,0,2.27,1.13,3,2,3.42,4.06,1.22,10.39,1,11-2.73,7.49-11.16,9.76-13.5,9.5-.07,0-.28,0-.28-.08,0-.33,11.41.09,23.78-2.42,10.33-2.09,11.12-4.16,15-3,7.62,2.28,12.3,12.56,12,21-.09,2.64-.32,8.82-5,12-3.76,2.55-9.68,2.69-12,0s-.07-6.93-2-8c-1.35-.75-3.13,1-7,3a49.942,49.942,0,0,1-11,4,65.161,65.161,0,0,1-13,2c-7,.6-10.12,0-16,0a105.134,105.134,0,0,0-21,2c-18.38,6-29.08,14.58-35.5,21.5-3.39,3.66-18,23-18,23s-14,11-22,14-27,16-31,20S469.33,523,473.91,493.75l4.59-29.25S540.6,418.23,546.05,440.87Z" transform="translate(819)" fill="#f98689"/>
    <path id="Path_531" data-name="Path 531" d="M536.5,472.5s44-32,78-38,99-15,116-15,5-21,5-21h-14s10-25,5-22-11,9-17,9,7-5,10-9,10-7,7-18-12,5-12,5-6,7-1-9,8-25,8-25h-10l-2,8s-19.28-51.13-12-39c3,5,15-12,19-16s8-4-14-5-32-10-52,11-12-10-19,7-7,35-11,50-8,37-16,38-20,19-35-40S536.5,472.5,536.5,472.5Z" transform="translate(819)" fill="#fc8183"/>
    <path id="Path_532" data-name="Path 532" d="M887.29,501.5s-4.79-12,12.21-16,12-10,12-10,7-8,21,0,20-7,9-14-16,3-25-4-13-20-4-20,19,7,24,3-3-4-20-13-24-30-30-16,8,17,0,23-18,3-22,9-12,12-9,18,29-2,32,0,9,6,0,11-30,2-33,9,6,16,16,16,5.21,4,5.21,4Z" transform="translate(819)" fill="url(#linear-gradient-3)"/>
    <rect id="Rectangle_468" data-name="Rectangle 468" width="5" height="239" transform="translate(1033.5 146.5)" fill="#e57082"/>
    <rect id="Rectangle_469" data-name="Rectangle 469" width="236" height="5" transform="translate(1063.5 191.5)" fill="#fff"/>
    <rect id="Rectangle_470" data-name="Rectangle 470" width="47" height="4" transform="translate(1063.5 219.5)" fill="none" stroke="red" stroke-miterlimit="10" stroke-width="1"/>
    <rect id="Rectangle_471" data-name="Rectangle 471" width="47" height="9" transform="translate(1063.5 265.5)" fill="#56c8c9"/>
    <rect id="Rectangle_472" data-name="Rectangle 472" width="58" height="9" transform="translate(1131.5 265.5)" fill="none" stroke="red" stroke-miterlimit="10" stroke-width="1"/>
    <rect id="Rectangle_473" data-name="Rectangle 473" width="67" height="9" transform="translate(1210.5 265.5)" fill="none" stroke="red" stroke-miterlimit="10" stroke-width="1"/>
    <rect id="Rectangle_474" data-name="Rectangle 474" width="47" height="5" transform="translate(1063.5 320.5)" fill="#f4a177"/>
    <rect id="Rectangle_475" data-name="Rectangle 475" width="181" height="5" transform="translate(1063.5 339.5)" fill="#734375"/>
    <rect id="Rectangle_476" data-name="Rectangle 476" width="165" height="3" transform="translate(1063.5 359.5)" fill="#734375"/>
    <path id="Path_533" data-name="Path 533" d="M296.5,706.5s-16.15-76.84-12.57-105.42S309.5,485.5,327.5,451.5s75-117,118-144,69-18,93-14,45,15,45,15,1,21,0,31-11,18-14,33-21,49-17,65-7,0-12,1-36,20-48,34-25,26-28,38,15,7,15,7-24,5-34,23-11,11-19,23-17,14-18,25-10,29-2,32,19.35,8,27.18,7-37.18,45-57.18,54S296.5,706.5,296.5,706.5Z" transform="translate(819)" fill="#f97d59"/>
    <rect id="Rectangle_477" data-name="Rectangle 477" width="302" height="4" transform="translate(1131.5 219.5)" fill="#f97d59"/>
    <rect id="Rectangle_478" data-name="Rectangle 478" width="206" height="6" transform="translate(1131.5 241.5)" fill="#fcbc40"/>
    <rect id="Rectangle_479" data-name="Rectangle 479" width="74" height="6" transform="translate(1355.5 241.5)" fill="#2279bc"/>
    <rect id="Rectangle_480" data-name="Rectangle 480" width="62" height="2" transform="translate(1447.5 219.5)" fill="#e57082"/>
    <path id="Path_534" data-name="Path 534" d="M607.25,382.25c8.25,1.25,32.25-16.75,46.25-34.75s10-14,10-14-6-2-9-12,0-14,0-14,33.16-9,42.08-7,17.63-19.13,22.78-21.57-14.11.8-22-1.81-28.15-2.39-32,0-18.55,14-22.2,17.71-6.22-.83-8.44-4.58-7.76,17.61-8.49,23.43-5.52,36.51-9.63,47.17" transform="translate(819)" fill="#f97d59"/>
    <path id="Path_535" data-name="Path 535" d="M609.5,380.5c-1.4-1.32,3.4-6.29,8-17,3.86-9,5.18-16.41,7.5-29.5,2-11.11,1.47-12.68,3.5-22.5a183.764,183.764,0,0,1,5-19s5,8,11,3,17-15,22-16,12-3,25-2,13,3,18,2a45.313,45.313,0,0,1,8-1l-2,1a42.771,42.771,0,0,0-6,8c-1.36,2.35-1.62,3.35-3,5a18.15,18.15,0,0,1-7,5c-2.6,1.1-6.1,1.41-13,2,0,0-27,4-31,6s-4,8-4,8,3,14,5,16,6,4,5,5-7,10-7,10v-1a160.3,160.3,0,0,1-26,26C625.11,372.18,611.82,382.7,609.5,380.5Z" transform="translate(819)" fill="#ae8f8a"/>
    <path id="Path_536" data-name="Path 536" d="M682.5,332.5s4-12,10-11,0-6,0-6-5-2-7,0-8,19-8,19Z" transform="translate(819)" fill="#332b3a"/>
    <path id="Path_537" data-name="Path 537" d="M646.5,382.5s0,6,14,11,19,4,19,4-4,3-6,3,12-2,8,0,8,2,8,2,1,2,6,2,0-11,0-11a13.87,13.87,0,0,1,9,4c4,4-2,9-2,9s1,2,6-3,3,3,3,3,8,3,9,0,10.36-8,10.36-8l4.64-1c4.42,3.31,6.59,8.61,5.5,13.5a12.86,12.86,0,0,1-6,8c-3.49,1.86-7.09,1.32-9,1-10.44-1.73-36.94-6.11-36.5-9.5,0-.42.6-1.42,1.15-1.41,1.13,0,1.73,2.88-4.15,1.41-8-2-1-2-7-2s-22-8-28-6,3-3,3-3-13,2-14-2,4-4,4-7-1-6-6-8,8-10,8-5Z" transform="translate(819)" fill="#332a3b"/>
    <path id="Path_538" data-name="Path 538" d="M645.5,366.5c3-11-5-25-9-16s0,27,0,27-2,7,2,4,8-4,8-13S645.5,366.5,645.5,366.5Z" transform="translate(819)" fill="#fe8d85" stroke="#ff7155" stroke-miterlimit="10" stroke-width="1"/>
    <path id="Path_539" data-name="Path 539" d="M686.5,338.5c5-8,11-7,11-7" transform="translate(819)" fill="none" stroke="#000" stroke-miterlimit="10" stroke-width="1"/>
    <path id="Path_540" data-name="Path 540" d="M691.5,353.5c8,4,15.88-2.37,15.88-2.37" transform="translate(819)" fill="none" stroke="#000" stroke-miterlimit="10" stroke-width="1"/>
    <path id="Path_541" data-name="Path 541" d="M717.5,364.5s-7,3-6,3,4,4,6,0S717.5,364.5,717.5,364.5Z" transform="translate(819)" fill="#302c3a"/>
    <path id="Path_542" data-name="Path 542" d="M741.36,587.29" transform="translate(819)" fill="#603813"/>
    <path id="Path_543" data-name="Path 543" d="M741.36,588.79a1.5,1.5,0,1,0-1.5-1.5,1.5,1.5,0,0,0,1.5,1.5Z" transform="translate(819)" fill="#603813"/>
    <path id="Path_544" data-name="Path 544" d="M834.89,587" transform="translate(819)" fill="#603813"/>
    <path id="Path_545" data-name="Path 545" d="M834.89,588.46a1.5,1.5,0,1,0-1.5-1.5,1.5,1.5,0,0,0,1.5,1.5Z" transform="translate(819)" fill="#603813"/>
    <path id="Path_546" data-name="Path 546" d="M836.18,610.43" transform="translate(819)" fill="#603813"/>
    <path id="Path_547" data-name="Path 547" d="M836.18,611.93a1.5,1.5,0,1,0-1.5-1.5,1.5,1.5,0,0,0,1.5,1.5Z" transform="translate(819)" fill="#603813"/>
    <path id="Path_548" data-name="Path 548" d="M742,607.86" transform="translate(819)" fill="#603813"/>
    <path id="Path_549" data-name="Path 549" d="M742,609.36a1.5,1.5,0,1,0-1.5-1.5A1.5,1.5,0,0,0,742,609.36Z" transform="translate(819)" fill="#603813"/>
    <path id="Path_550" data-name="Path 550" d="M829.5,777.5v-19s1-32,0-54-14-31-14-31v-63s2,55,2,60,12,10,12,28Z" transform="translate(819)" fill="#603813"/>
    <path id="Path_551" data-name="Path 551" d="M829.5,777.5c0-9-.22-18,0-27s.16-18,.11-27c0-4.5-.11-9-.26-13.5a79.61,79.61,0,0,0-1.18-13.38A43.139,43.139,0,0,0,823.69,684a36.3,36.3,0,0,0-3.7-5.56,27.682,27.682,0,0,0-4.7-4.67l-.17-.12v-.19l-.12-63h1L817.33,653l.34,10.64.16,5.32v1.33a3.651,3.651,0,0,0,.18,1.19,8.44,8.44,0,0,0,1.23,2.2c1,1.41,2.23,2.74,3.33,4.14a39.34,39.34,0,0,1,3,4.42,29.49,29.49,0,0,1,3.66,10.06,60.594,60.594,0,0,1,.49,10.67v31.92Zm0,0-.24-42.57V703.01a60.829,60.829,0,0,0-.52-10.56,28.681,28.681,0,0,0-3.62-9.81,37.543,37.543,0,0,0-3-4.33c-1.1-1.38-2.28-2.7-3.36-4.14a9.2,9.2,0,0,1-1.35-2.42,4.348,4.348,0,0,1-.23-1.42V669l-.19-5.32-.38-10.63L815,610.52h1l-.12,63-.17-.31a28.06,28.06,0,0,1,4.84,4.84,36.919,36.919,0,0,1,3.76,5.67,44.677,44.677,0,0,1,4.55,12.77A82.716,82.716,0,0,1,830,710c.13,4.51.17,9,.2,13.52q0,13.5-.35,27C829.61,759.52,829.59,768.49,829.5,777.5Z" transform="translate(819)" fill="#603813"/>
    <path id="Path_552" data-name="Path 552" d="M815.5,764.5c-18.25,18.25,0-44,0-44S832.5,747.5,815.5,764.5Z" transform="translate(819)" fill="#603813"/>
    <path id="Path_553" data-name="Path 553" d="M815.5,764.5a20.555,20.555,0,0,1-2.64,2.29,4.24,4.24,0,0,1-3.26,1,2.28,2.28,0,0,1-1.32-1.12,5.732,5.732,0,0,1-.6-1.65,17.728,17.728,0,0,1-.37-3.48,80.482,80.482,0,0,1,1.37-13.93c.78-4.6,1.71-9.18,2.8-13.71s2.22-9.07,3.56-13.54l.32-1.06.54.94a56.479,56.479,0,0,1,4.92,10.87,47.486,47.486,0,0,1,2.34,11.67,35.851,35.851,0,0,1-.13,6,30.12,30.12,0,0,1-1.29,5.79A25.56,25.56,0,0,1,815.5,764.5Zm0,0a25.4,25.4,0,0,0,6.11-10,29.341,29.341,0,0,0,1.11-11.67,46.837,46.837,0,0,0-2.64-11.44,60.249,60.249,0,0,0-5-10.63l.86-.12c-1.24,4.48-2.49,9-3.61,13.49s-2.23,9-3.12,13.6a79.655,79.655,0,0,0-1.76,13.83,17.478,17.478,0,0,0,.32,3.46,5.514,5.514,0,0,0,.58,1.62,2.15,2.15,0,0,0,1.26,1.09,4.13,4.13,0,0,0,3.21-1A20.3,20.3,0,0,0,815.5,764.5Z" transform="translate(819)" fill="#603813"/>
    <path id="Path_554" data-name="Path 554" d="M818.5,733.5c0,21-5,26-5,26s5,2,7-8a30.43,30.43,0,0,0-2-18Z" transform="translate(819)" fill="#603813"/>
    <path id="Path_555" data-name="Path 555" d="M818.5,733.5c0,1.17,0,2.3.07,3.37s0,2.23,0,3.35-.13,2.24-.19,3.36-.2,2.24-.34,3.35a41.907,41.907,0,0,1-1.31,6.64,27.179,27.179,0,0,1-1.1,3.22,12.291,12.291,0,0,1-1.75,3.06l-.17-.8a3.47,3.47,0,0,0,3.07-.71,7.79,7.79,0,0,0,2.06-2.86,24.86,24.86,0,0,0,1.73-7.2,29.829,29.829,0,0,0-.15-7.49,30.458,30.458,0,0,0-1.92-7.29Zm0,0a27.65,27.65,0,0,1,2.39,7.21,30.081,30.081,0,0,1,.45,7.64,24.149,24.149,0,0,1-1.69,7.5,8.531,8.531,0,0,1-2.3,3.25,4.19,4.19,0,0,1-4,.85l-.67-.22.5-.58a11.321,11.321,0,0,0,1.59-2.73,27.163,27.163,0,0,0,1.11-3.1,56.835,56.835,0,0,0,1.43-6.49c.19-1.1.32-2.21.47-3.31l.33-3.33c.08-1.12.18-2.21.25-3.35S818.48,734.56,818.5,733.5Z" transform="translate(819)" fill="#603813"/>
    <path id="Path_556" data-name="Path 556" d="M760.5,642.5v25s-15,39-3,67,12,5,12,5-1,8-3,6-14-22-12-37,5-33,8-37S760.5,642.5,760.5,642.5Z" transform="translate(819)" fill="#603813"/>
    <path id="Path_557" data-name="Path 557" d="M760.5,642.5c0,8.42.14,16.76.21,25h0a139.849,139.849,0,0,0-5.87,23,106.185,106.185,0,0,0-1.37,23.68,60.071,60.071,0,0,0,5.73,22.84c.83,1.79,1.7,3.57,2.65,5.3a20.211,20.211,0,0,0,3.36,4.7,3.5,3.5,0,0,0,1.08.7,1,1,0,0,0,.94-.19,2.669,2.669,0,0,0,.7-1,9,9,0,0,0,.45-1.33,27.255,27.255,0,0,0,.64-5.79l1,.06a29.554,29.554,0,0,1-.7,3.59,12.435,12.435,0,0,1-.62,1.77,3.943,3.943,0,0,1-.55.87,1.719,1.719,0,0,1-.5.4,1.1,1.1,0,0,1-.76.08,1.82,1.82,0,0,1-.93-.7,7.576,7.576,0,0,1-.58-.75c-.36-.5-.68-1-1-1.52q-1-1.53-1.83-3.12A82.85,82.85,0,0,1,756.67,727a48,48,0,0,1-2.78-14.15c0-.61-.06-1.21,0-1.82l.14-1.82c.07-1.22.3-2.38.45-3.57l1.07-7.1c.76-4.72,1.57-9.44,2.57-14.13.5-2.34,1-4.68,1.71-7A35.148,35.148,0,0,1,761,674a17.57,17.57,0,0,1,.73-1.67c.31-.54.69-1.05.91-1.52a10.862,10.862,0,0,0,.62-3.44c.06-1.18,0-2.37,0-3.56-.09-2.39-.31-4.77-.58-7.14C762.11,651.93,761.37,647.2,760.5,642.5Zm0,0c1,4.69,1.76,9.4,2.39,14.15.3,2.37.57,4.75.69,7.15a27.034,27.034,0,0,1,0,3.6A11.328,11.328,0,0,1,763,671a23.22,23.22,0,0,0-2.69,6.57c-.64,2.3-1.16,4.63-1.63,7-1,4.67-1.72,9.39-2.43,14.12l-1,7.09c-.14,1.19-.36,2.38-.43,3.55l-.13,1.76v1.77a47,47,0,0,0,2.78,13.88,82.65,82.65,0,0,0,5.81,13c.57,1,1.18,2.07,1.81,3.07.32.5.64,1,1,1.46a6.393,6.393,0,0,0,.52.68,1.18,1.18,0,0,0,.44.4c.07.11.49-.33.69-.83a10.173,10.173,0,0,0,.56-1.61,28.78,28.78,0,0,0,.67-3.45l1,.06a26.908,26.908,0,0,1-.69,6,8.41,8.41,0,0,1-.5,1.49,3.689,3.689,0,0,1-1,1.39,2,2,0,0,1-1.85.35,4.319,4.319,0,0,1-1.42-.9,20.679,20.679,0,0,1-3.55-5c-1-1.76-1.84-3.56-2.67-5.37l-1.21-2.74L756,732l-.94-2.86c-.25-1-.53-1.93-.77-2.91a69.993,69.993,0,0,1-1.72-11.87,104,104,0,0,1,1.57-23.84,133.371,133.371,0,0,1,6.15-23.08v.07C760.36,659.08,760.51,650.74,760.5,642.5Z" transform="translate(819)" fill="#603813"/>
    <path id="Path_558" data-name="Path 558" d="M788.5,637.5v135s4-124,2-130S788.5,637.5,788.5,637.5Z" transform="translate(819)" fill="#603813"/>
    <path id="Path_559" data-name="Path 559" d="M788.5,637.5l.07,33.75.18,33.75.18,33.75L789,772.5h-1l2.11-67.75c.32-11.3.62-22.59.79-33.89.08-5.65.13-11.3.1-17,0-2.82,0-5.64-.19-8.47,0-.7-.1-1.4-.17-2.1a10.265,10.265,0,0,0-.56-2l-.71-2-.38-1-.21-.48a1.719,1.719,0,0,0-.13-.23.411.411,0,0,0-.07-.11C788.55,637.42,788.49,637.44,788.5,637.5Zm0,0c0-.06,0-.08.08,0a1,1,0,0,1,.08.11l.12.23.22.48.38,1,.72,2a11.253,11.253,0,0,1,.57,2c.07.7.15,1.41.18,2.11.16,2.82.19,5.65.23,8.47v17q-.12,16.95-.43,33.9l-.69,33.89L789,772.52h-1l.07-33.75.18-33.75.18-33.75Z" transform="translate(819)" fill="#603813"/>
    <path id="Path_560" data-name="Path 560" d="M808.5,824.5v-190c-2,58-2,186-1,188Z" transform="translate(819)" fill="#603813"/>
    <path id="Path_561" data-name="Path 561" d="M808.5,824.5l-.5-190h1c-.56,15.84-.87,31.69-1.14,47.54s-.43,31.71-.56,47.56-.19,31.71-.21,47.56V801l.09,11.89.11,5.94c0,1,.06,2,.13,3a5.834,5.834,0,0,0,.1.73l.33.66Zm0,0-.67-1.32-.34-.67a5.989,5.989,0,0,1-.11-.74c-.08-1-.12-2-.16-3l-.18-5.94-.2-11.89-.24-23.79q-.08-23.77,0-47.56t.39-47.57c.21-15.86.46-31.71,1-47.57h1Z" transform="translate(819)" fill="#603813"/>
    <path id="Path_562" data-name="Path 562" d="M761.5,692.5c-3,20,1.29,48.07,3.64,45.54s4.36-14.54,4.36-14.54-5,13-5,10-4-31-2-38S761.5,692.5,761.5,692.5Z" transform="translate(819)" fill="#603813"/>
    <path id="Path_563" data-name="Path 563" d="M761.5,692.5a112.763,112.763,0,0,0-.78,15.47,150.607,150.607,0,0,0,1,15.46c.3,2.56.64,5.11,1.11,7.64.24,1.27.5,2.52.84,3.75a17.2,17.2,0,0,0,.58,1.8,5.937,5.937,0,0,0,.39.8,1.442,1.442,0,0,0,.21.28c.08.06.05,0,0,0h0l.13-.17.26-.34c.14-.27.3-.53.43-.81a17.773,17.773,0,0,0,.71-1.75c.42-1.2.77-2.44,1.09-3.68.63-2.49,1.14-5,1.59-7.55l1,.26c-.86,2.19-1.75,4.37-2.71,6.54a33.9,33.9,0,0,1-1.57,3.21,3.069,3.069,0,0,1-.65.84l-.11.07a.59.59,0,0,1-.2.06.571.571,0,0,1-.31,0,.562.562,0,0,1-.21-.18.82.82,0,0,1-.14-.43v-.48c0-.55-.08-1.14-.13-1.72-.46-4.67-1-9.35-1.38-14s-.76-9.39-.79-14.1a38.8,38.8,0,0,1,.47-7.06l.19-.88.25-.84c.15-.56.3-1.13.4-1.71a5,5,0,0,0,.09-.86c0-.26,0-.67-.32-.65A3.07,3.07,0,0,0,761.5,692.5Zm0,0a5.184,5.184,0,0,1,.57-.67,1.53,1.53,0,0,1,.74-.5.378.378,0,0,1,.36.27,1.691,1.691,0,0,1,.07.45,5.212,5.212,0,0,1-.06.88,16.726,16.726,0,0,1-.35,1.74l-.22.86-.16.86a38,38,0,0,0-.25,7c.14,4.69.58,9.37,1.06,14l1.54,14c.05.59.12,1.17.14,1.79v.4h0a.4.4,0,0,0-.13-.1.28.28,0,0,0-.2,0h-.1a2.871,2.871,0,0,0,.4-.57,34.5,34.5,0,0,0,1.5-3.12c.94-2.15,1.81-4.33,2.65-6.52l1.75-4.53-.8,4.79c-.43,2.57-1,5.11-1.63,7.63-.34,1.26-.7,2.51-1.14,3.75a18.306,18.306,0,0,1-.76,1.84c-.15.31-.32.6-.49.9l-.32.44-.17.21a1.149,1.149,0,0,1-.38.26.86.86,0,0,1-.55,0,.918.918,0,0,1-.35-.22,2,2,0,0,1-.38-.48,6.16,6.16,0,0,1-.45-.94,17.441,17.441,0,0,1-.61-1.9c-.33-1.27-.6-2.55-.83-3.83-.45-2.56-.79-5.14-1-7.72a152.167,152.167,0,0,1-.67-15.54,101.33,101.33,0,0,1,1.22-15.43Z" transform="translate(819)" fill="#603813"/>
    <path id="Path_564" data-name="Path 564" d="M764.5,675.5s6,26,3,41S776.5,684.5,764.5,675.5Z" transform="translate(819)" fill="#603813"/>
    <path id="Path_565" data-name="Path 565" d="M764.5,675.5a157.751,157.751,0,0,1,3.81,22.15,84.746,84.746,0,0,1,.42,11.27c0,.94-.05,1.88-.14,2.83s-.13,1.88-.3,2.81-.27,1.89-.46,2.8l-.25,1.37c0,.22-.07.47-.08.64h0s0-.2-.13-.27c-.61-.36-.89.21-.76,0v.06h0v-.14l.09-.32a125.719,125.719,0,0,0,2.83-22.15,59.327,59.327,0,0,0-.51-11.15,24.893,24.893,0,0,0-1.39-5.38A10.92,10.92,0,0,0,764.5,675.5Zm0,0a10.61,10.61,0,0,1,3.38,4.44,25,25,0,0,1,1.63,5.41,58.88,58.88,0,0,1,.8,11.25,103.01,103.01,0,0,1-.8,11.24A111.767,111.767,0,0,1,767.67,719l-.09.36-.06.2v.08a.442.442,0,0,1-.05.09c.13-.15-.16.43-.79.07a.55.55,0,0,1-.13-.31v-.14a6.847,6.847,0,0,1,.1-.75l.26-1.4c.2-.92.32-1.83.47-2.74s.23-1.84.32-2.76.14-1.85.17-2.78a101.6,101.6,0,0,0-.28-11.17c-.28-3.73-.7-7.44-1.23-11.14S765.2,679.18,764.5,675.5Z" transform="translate(819)" fill="#603813"/>
    <path id="Path_566" data-name="Path 566" d="M764.5,698.5c4.47-8.94,0,16,0,16S763.5,700.5,764.5,698.5Z" transform="translate(819)" fill="#603813"/>
    <path id="Path_567" data-name="Path 567" d="M764.5,698.5a12.564,12.564,0,0,1,.62-1.14,3.928,3.928,0,0,1,.39-.52c.14-.14.32-.36.57-.27a.89.89,0,0,1,.32.56,3.539,3.539,0,0,1,.11.65,9.513,9.513,0,0,0,.06,1.3c0,1.74-.09,3.47-.23,5.2a86.937,86.937,0,0,1-1.37,10.3l-.74,3.88-.21-3.93c-.14-2.68-.15-5.36-.12-8,0-1.34.06-2.68.11-4A16,16,0,0,1,764.5,698.5Zm0,0a13.228,13.228,0,0,0-.38,4c0,1.34.1,2.68.19,4,.17,2.67.46,5.33.67,8l-1-.05.84-5.11.89-5.1c.27-1.71.52-3.41.64-5.13v-1.29a4.481,4.481,0,0,0-.07-.64.78.78,0,0,0-.27-.54c-.2-.08-.39.11-.53.25a3.824,3.824,0,0,0-.39.51C764.9,697.74,764.7,698.12,764.5,698.5Z" transform="translate(819)" fill="#603813"/>
    <path id="Path_568" data-name="Path 568" d="M771.5,658.5s6,15,6,23v42s6-56-3-63S771.5,658.5,771.5,658.5Z" transform="translate(819)" fill="#603813"/>
    <path id="Path_569" data-name="Path 569" d="M771.5,658.5a114.148,114.148,0,0,1,5.21,15.63,33.321,33.321,0,0,1,1.09,8.2l.07,8.23c.1,11,.08,22,.12,32.94h-1c1.19-12.06,2-24.19,2-36.32a108.361,108.361,0,0,0-1.17-18.1,31.109,31.109,0,0,0-1.08-4.38,9.12,9.12,0,0,0-2.19-3.85c-1.13-1-2.36-1.9-3.54-2.84l-.9-.7-.46-.34-.11-.07h-.06c.06.07.13.13.2.2A12.564,12.564,0,0,1,771.5,658.5Zm0,0c-.59-.48-1.18-1-1.75-1.46a1.905,1.905,0,0,1-.21-.19h0v-.06a.06.06,0,0,1,.07,0h.07l.13.07.47.32.92.67c1.22.92,2.45,1.79,3.63,2.77a9.189,9.189,0,0,1,2.38,3.92,30.743,30.743,0,0,1,1.21,4.42,108.7,108.7,0,0,1,1.47,18.19c.08,6.08-.15,12.16-.46,18.24s-.76,12.13-1.4,18.18h-1c0-11,0-22,.12-32.94l.07-8.23a34.16,34.16,0,0,0-1-8.1,122.653,122.653,0,0,0-4.72-15.8Z" transform="translate(819)" fill="#603813"/>
    <path id="Path_570" data-name="Path 570" d="M771.5,725.5s5,19,8,26S777.5,727.5,771.5,725.5Z" transform="translate(819)" fill="#603813"/>
    <path id="Path_571" data-name="Path 571" d="M771.5,725.5l4.28,13.78c.74,2.28,1.44,4.58,2.22,6.84.39,1.14.79,2.26,1.22,3.38.2.56.45,1.1.67,1.65a5.391,5.391,0,0,0,.36.76c0,.1.18.22.08.15a.41.41,0,0,0-.32,0,.32.32,0,0,0-.16.13s0,0,0-.06a8.492,8.492,0,0,0,0-1.67,13.324,13.324,0,0,0-.19-1.76c-.15-1.19-.35-2.37-.56-3.54-.43-2.36-1-4.69-1.56-7a57.667,57.667,0,0,0-2.14-6.84,23.313,23.313,0,0,0-1.49-3.25,9.387,9.387,0,0,0-1-1.47,3.64,3.64,0,0,0-1.41-1.1Zm0,0a5.65,5.65,0,0,1,2.63,2.42,22.9,22.9,0,0,1,1.72,3.2,57.226,57.226,0,0,1,2.44,6.83c.69,2.31,1.22,4.67,1.7,7,.24,1.18.45,2.37.62,3.58.09.6.16,1.2.22,1.81a8.844,8.844,0,0,1,0,1.93.591.591,0,0,1,0,.17.8.8,0,0,1-.08.2c0,.05,0,.07-.1.14a.739.739,0,0,1-.21.15.659.659,0,0,1-.53,0,1.32,1.32,0,0,1-.48-.54,6.274,6.274,0,0,1-.41-.88c-.22-.56-.46-1.12-.66-1.69-.42-1.14-.81-2.28-1.19-3.43-.75-2.29-1.46-4.59-2.1-6.91C773.74,734.86,772.54,730.2,771.5,725.5Z" transform="translate(819)" fill="#603813"/>
    <path id="Path_572" data-name="Path 572" d="M780.5,831.5l1-83S777.5,790.5,780.5,831.5Z" transform="translate(819)" fill="#603813"/>
    <path id="Path_573" data-name="Path 573" d="M780.5,831.5l.17-21,.06-20.79.09-20.63.18-20.61,1,.06c-.62,6.88-1.08,13.79-1.43,20.7s-.56,13.82-.73,20.74-.17,13.84-.06,20.76l.08,5.19.16,5.19q.08,2.6.21,5.16C780.3,828,780.39,829.75,780.5,831.5Zm0,0c-.19-3.38-.58-6.92-.72-10.36l-.29-5.19-.2-5.19q-.31-10.39-.22-20.78c0-6.93.28-13.86.59-20.78s.75-13.83,1.34-20.75l1,.06-.32,20.89-.41,20.87L780.83,811Z" transform="translate(819)" fill="#603813"/>
    <path id="Path_574" data-name="Path 574" d="M743.5,752.5s-19,6,0,25-7-9-6-14,9-6,8-9S745.5,751.5,743.5,752.5Z" transform="translate(819)" fill="#603813"/>
    <path id="Path_575" data-name="Path 575" d="M743.5,752.5A15.838,15.838,0,0,0,739,755a10.581,10.581,0,0,0-3.14,4,8.82,8.82,0,0,0-.57,5,14.762,14.762,0,0,0,1.71,4.76,35.75,35.75,0,0,0,6.31,8c1.19,1.22,2.44,2.42,3.66,3.61l1.86,1.77.94.86.48.4.22.17h-.15a.47.47,0,0,0-.38.38.59.59,0,0,0,0,.14c0,.08,0-.07-.08-.13l-.15-.25-.36-.52-.75-1-1.53-2.06L744,775.92a75.278,75.278,0,0,1-5.59-8.7,13.24,13.24,0,0,1-1-2.42,3,3,0,0,1-.1-1.36,5.49,5.49,0,0,1,.45-1.25,9.88,9.88,0,0,1,3.73-3.56c.73-.46,1.47-.89,2.19-1.37a4.25,4.25,0,0,0,1.76-1.78,1.69,1.69,0,0,0-.07-1.23c-.13-.41-.23-.83-.32-1.25l-.11-.63a1.674,1.674,0,0,0-.08-.32.16.16,0,0,0-.23-.12C744.25,752.08,743.89,752.32,743.5,752.5Zm0,0c.39-.19.75-.43,1.15-.59a.18.18,0,0,1,.25.14,1.762,1.762,0,0,1,.08.31l.13.63a12.548,12.548,0,0,0,.33,1.24,1.83,1.83,0,0,1,.09,1.28,4.57,4.57,0,0,1-1.77,1.85c-.71.48-1.45.92-2.17,1.39a9.45,9.45,0,0,0-3.52,3.58c-1,1.56,0,3.18.8,4.65a79.62,79.62,0,0,0,5.84,8.43l3.12,4.09,1.58,2,.77,1,.38.54.19.29a1.409,1.409,0,0,1,.2.44.709.709,0,0,1,0,.22.53.53,0,0,1-.43.44.619.619,0,0,1-.38-.06,1,1,0,0,1-.21-.12l-.28-.22-.51-.44-.95-.89-1.84-1.7c-1.21-1.22-2.43-2.42-3.62-3.67-.6-.63-1.19-1.25-1.74-1.93s-1.12-1.32-1.63-2a27.123,27.123,0,0,1-2.77-4.4,15.328,15.328,0,0,1-1.58-5,9.46,9.46,0,0,1,.74-5.09,10.77,10.77,0,0,1,3.23-4A16.1,16.1,0,0,1,743.5,752.5Z" transform="translate(819)" fill="#603813"/>
    <path id="Path_576" data-name="Path 576" d="M750.5,769.5v57s-5-52-2-56S750.5,769.5,750.5,769.5Z" transform="translate(819)" fill="#603813"/>
    <path id="Path_577" data-name="Path 577" d="M750.5,769.5c.2,9.53.3,19,.37,28.53s.08,19,.12,28.47h-1c-.48-5-.88-10-1.26-15s-.75-10-1-15-.44-10.06-.46-15.09c0-2.52.06-5,.31-7.55.07-.63.15-1.25.28-1.88.06-.31.17-.61.25-.92a3.461,3.461,0,0,1,.5-.83,15.182,15.182,0,0,1,1.25-1.41,2.793,2.793,0,0,1,.38-.3c.07,0,.14-.09.23-.08a.19.19,0,0,1,.16.17,2.249,2.249,0,0,1-.13.89Zm0,0a2.44,2.44,0,0,0,.13-.92c0-.18-.21-.13-.33-.05a1.731,1.731,0,0,0-.35.31,11.917,11.917,0,0,0-1.19,1.45,2.941,2.941,0,0,0-.44.79c-.07.31-.17.6-.22.91-.1.61-.17,1.23-.22,1.86-.17,2.49-.13,5-.08,7.51.11,5,.41,10,.75,15s.69,10,1.11,15,.87,10,1.33,15h-1c0-9.51,0-19,.12-28.53S750.3,779,750.5,769.5Z" transform="translate(819)" fill="#603813"/>
    <path id="Path_578" data-name="Path 578" d="M767.5,761.5s5,54,4,65S767.5,761.5,767.5,761.5Z" transform="translate(819)" fill="#603813"/>
    <path id="Path_579" data-name="Path 579" d="M767.5,761.5c1.21,11,2.22,22,3.1,33,.45,5.51.81,11,1.12,16.54.13,2.76.27,5.52.34,8.29.06,1.38,0,2.77.05,4.16,0,.69-.05,1.4-.07,2.09v1l-.07.54a1.709,1.709,0,0,1,0,.3v.17a.67.67,0,0,1-.27.37.56.56,0,0,1-.47,0,.569.569,0,0,1-.23-.15.733.733,0,0,1-.11-.18.828.828,0,0,1-.07-.18.462.462,0,0,0-.07-.3,1.856,1.856,0,0,1-.1-.54l-.13-1-.21-2.07L770,819.4l-.5-8.28c-.29-5.51-.59-11-.79-16.55C768.12,783.58,767.74,772.54,767.5,761.5Zm0,0,1.84,33.08.93,16.54.55,8.26.33,4.12.21,2,.13,1a1.256,1.256,0,0,0,.09.48v.2a.341.341,0,0,0-.17-.11.46.46,0,0,0-.41,0c-.2.17-.12.16-.14.15a.444.444,0,0,0,0-.08,1.291,1.291,0,0,0,0-.21l.06-.49v-1c0-.68.09-1.35.08-2v-4.13c-.06-2.75-.18-5.51-.3-8.26-.26-5.51-.65-11-1-16.53L768.69,778Z" transform="translate(819)" fill="#603813"/>
    <path id="Path_580" data-name="Path 580" d="M760.5,831.5v81s6-53,4-58S760.5,831.5,760.5,831.5Z" transform="translate(819)" fill="#603813"/>
    <path id="Path_581" data-name="Path 581" d="M760.5,831.5l.09,20.48.19,20.28.15,20.13L761,912.5l-1-.06c1.53-13.51,2.91-27,4-40.59.25-3.39.48-6.78.6-10.17,0-1.69.08-3.39,0-5.07a8.536,8.536,0,0,0-.12-1.24,6.122,6.122,0,0,0-.32-1.18,24.769,24.769,0,0,1-.7-2.48c-.75-3.34-1.24-6.71-1.71-10.08S760.85,834.88,760.5,831.5Zm0,0q.64,5.06,1.45,10.1c.54,3.35,1.12,6.71,1.94,10a24.159,24.159,0,0,0,.72,2.42,6.732,6.732,0,0,1,.35,1.27,9.432,9.432,0,0,1,.15,1.29c.12,1.72.1,3.42.08,5.13-.07,3.41-.25,6.81-.46,10.2-.42,6.8-1,13.58-1.67,20.35s-1.32,13.54-2.06,20.31l-1-.06.07-20.39.15-20.37.19-20.22Z" transform="translate(819)" fill="#603813"/>
    <rect id="Rectangle_481" data-name="Rectangle 481" width="2" height="81" transform="translate(1623.5 831.5)" fill="#603813"/>
    <path id="Path_582" data-name="Path 582" d="M806.5,912.5h-2l-.24-20.25L804.11,872,804,831.5V831h3v.5l-.15,40.64Zm0,0-.35-40.64L806,831.5l.5.5h-2l.5-.5-.11,40.5-.13,20.25-.24,20.25h1.98Z" transform="translate(819)" fill="#603813"/>
    <rect id="Rectangle_482" data-name="Rectangle 482" width="4" height="24" transform="translate(1646.5 807.5)" fill="#603813"/>
    <path id="Path_583" data-name="Path 583" d="M831.5,831.5l-4,.15h-.14v-.15c-.15-4-.18-8-.27-12l-.08-12V807H832v.47c0,4,0,8.12-.15,12.13l-.14,6Zm0,0-.18-6.12-.14-6c-.11-4-.12-7.92-.15-11.87l.47.47h-4l.5-.5-.08,12c-.09,4-.12,8-.27,12l-.15-.15Z" transform="translate(819)" fill="#603813"/>
    <rect id="Rectangle_483" data-name="Rectangle 483" width="1" height="43" transform="translate(1650.5 853.5)" fill="#603813"/>
    <path id="Path_584" data-name="Path 584" d="M832.5,896.5h-1l-.23-10.75L831.11,875c-.06-3.58,0-7.17-.07-10.75V853h2v.49l-.06,10.83c0,3.61,0,7.23-.09,10.81C832.76,882.33,832.64,889.47,832.5,896.5Zm0,0-.35-21.64c-.06-3.59-.07-7.14-.09-10.69L832,853.5l.5.5h-1l.5-.5v10.75c0,3.58,0,7.17-.07,10.75l-.13,10.75-.23,10.75h.93Z" transform="translate(819)" fill="#603813"/>
    <rect id="Rectangle_484" data-name="Rectangle 484" width="2" height="41" transform="translate(1600.5 842.5)" fill="#603813"/>
    <path id="Path_585" data-name="Path 585" d="M783.5,883.5l-2,.06h0v-.06c-.17-6.83-.26-13.67-.34-20.5L781,852.75V842h3v.49c0,6.89,0,13.79-.15,20.64S783.64,876.8,783.5,883.5Zm0,0-.34-20.64c-.11-6.82-.11-13.58-.15-20.36l.49.49h-2l.5-.5v10.25L781.9,863c-.08,6.83-.17,13.67-.34,20.5l-.06-.06Z" transform="translate(819)" fill="#603813"/>
    <rect id="Rectangle_485" data-name="Rectangle 485" width="4" height="23" transform="translate(1590.5 856.5)" fill="#603813"/>
    <path id="Path_586" data-name="Path 586" d="M775.5,879.5l-4,.15h-.15v-.16c-.15-3.83-.18-7.67-.27-11.5L771,856.5V856h5v.47c0,3.89,0,7.79-.15,11.63l-.14,5.74Zm0,0-.18-5.87-.14-5.76c-.11-3.83-.12-7.59-.15-11.37l.47.47h-4l.5-.5-.08,11.5c-.09,3.83-.12,7.67-.27,11.5l-.15-.15Z" transform="translate(819)" fill="#603813"/>
    <rect id="Rectangle_486" data-name="Rectangle 486" width="2" height="83" transform="translate(1561.5 830.5)" fill="#603813"/>
    <path id="Path_587" data-name="Path 587" d="M744.5,913.5h-2l-.24-20.75L742.11,872,742,830.5V830h3v.5l-.15,41.64Zm0,0-.35-41.64L744,830.5l.5.5h-2l.5-.5-.11,41.5-.13,20.75-.24,20.75h1.98Z" transform="translate(819)" fill="#603813"/>
    <rect id="Rectangle_487" data-name="Rectangle 487" width="2" height="27" transform="translate(1613.5 879.5)" fill="#603813"/>
    <path id="Path_588" data-name="Path 588" d="M796.5,906.5l-2,.08h-.08v-.08c-.06-2.25-.16-4.5-.19-6.75L794.1,893l-.1-13.5V879h3v.49c0,4.55,0,9.13-.15,13.64S796.64,902.13,796.5,906.5Zm0,0c-.14-4.63-.25-9.16-.34-13.64s-.1-8.91-.15-13.36l.49.49h-2l.5-.5-.1,13.5-.13,6.75c0,2.25-.13,4.5-.19,6.75l-.08-.08Z" transform="translate(819)" fill="#603813"/>
    <rect id="Rectangle_488" data-name="Rectangle 488" width="2" height="109" transform="translate(1634.5 838.5)" fill="#603813"/>
    <path id="Path_589" data-name="Path 589" d="M817.5,947.5h-2l-.23-27.25L815.11,893,815,838.5V838h3v.5l-.15,54.65Zm0,0-.35-54.65L817,838.5l.5.5h-2l.5-.5-.11,54.5-.14,27.25-.23,27.25h1.98Z" transform="translate(819)" fill="#603813"/>
    <rect id="Rectangle_489" data-name="Rectangle 489" width="3" height="62" transform="translate(1655.5 892.5)" fill="#603813"/>
    <path id="Path_590" data-name="Path 590" d="M836.5,954.5l3-.06-.06.06c-.17-10.33-.26-20.67-.34-31l-.1-31,.5.5h-3l.49-.49c0,10.28,0,20.54-.15,30.86Zm0,0-.34-30.86c-.11-10.35-.11-20.75-.15-31.14V892h4v.5l-.1,31c-.08,10.33-.17,20.67-.34,31v.06h0Z" transform="translate(819)" fill="#603813"/>
    <rect id="Rectangle_490" data-name="Rectangle 490" width="1" height="38" transform="translate(1580.5 916.5)" fill="#603813"/>
    <path id="Path_591" data-name="Path 591" d="M762.5,954.5h-1c-.19-6.33-.28-12.67-.36-19-.06-3.17,0-6.33-.07-9.5V916h2v.49c0,6.39,0,12.79-.15,19.14S762.64,948.31,762.5,954.5Zm0,0c-.14-6.47-.26-12.83-.35-19.14s-.1-12.58-.15-18.86l.5.5h-1l.5-.5V926c0,3.17,0,6.33-.07,9.5-.08,6.33-.17,12.67-.36,19h.93Z" transform="translate(819)" fill="#603813"/>
    <rect id="Rectangle_491" data-name="Rectangle 491" width="3" height="38" transform="translate(1607.5 916.5)" fill="#603813"/>
    <path id="Path_592" data-name="Path 592" d="M791.5,954.5l-3,.09h-.08v-.09l-.19-9.5-.12-9.5-.1-19V916h4v.49c0,6.38,0,12.8-.15,19.14S791.64,948.3,791.5,954.5Zm0,0-.34-19.14c-.12-6.32-.1-12.58-.15-18.86l.49.49h-3l.5-.5-.1,19-.12,9.5-.19,9.5-.09-.09Z" transform="translate(819)" fill="#603813"/>
    <rect id="Rectangle_492" data-name="Rectangle 492" width="3" height="31" transform="translate(1624.5 923.5)" fill="#603813"/>
    <path id="Path_593" data-name="Path 593" d="M805.5,954.5l3-.1-.1.1c-.06-2.58-.15-5.17-.18-7.75l-.13-7.75L808,923.5l.5.5h-3l.48-.48c0,5.12,0,10.2-.15,15.36Zm0,0c-.13-5-.25-10.18-.33-15.36s-.11-10.42-.15-15.64V923h3.99v.5l-.09,15.5-.13,7.75c0,2.58-.12,5.17-.18,7.75v.1h-.1Z" transform="translate(819)" fill="#603813"/>
    <rect id="Rectangle_493" data-name="Rectangle 493" width="3" height="31" transform="translate(1561.5 925.5)" fill="#603813"/>
    <path id="Path_594" data-name="Path 594" d="M745.5,956.5l-3,.1h-.1v-.1c-.06-2.58-.15-5.17-.18-7.75l-.13-7.75L742,925.5V925h4v.48c0,5.22,0,10.46-.15,15.64S745.63,951.46,745.5,956.5Zm0,0-.33-15.64c-.13-5.16-.11-10.24-.15-15.36l.48.48h-3l.5-.5-.09,15.5-.13,7.75c0,2.58-.12,5.17-.18,7.75l-.1-.1Z" transform="translate(819)" fill="#603813"/>
    <path id="Path_595" data-name="Path 595" d="M613,958H845v17H613Z" transform="translate(819)" fill="#ad7964"/>
    <path id="Path_596" data-name="Path 596" d="M639.5,940.5s25-7,27,0-6,9-6,9-19,2-21-4S639.5,940.5,639.5,940.5Z" transform="translate(819)" fill="#603813"/>
    <path id="Path_597" data-name="Path 597" d="M639.5,940.5a95.5,95.5,0,0,1,9.87-2.46A53.1,53.1,0,0,1,659.54,937a13.351,13.351,0,0,1,5.13,1,4.17,4.17,0,0,1,2.06,1.88,5.1,5.1,0,0,1,.39,1.33,6.059,6.059,0,0,1,.16,1.34,6.662,6.662,0,0,1-.48,2.68,7.122,7.122,0,0,1-1.56,2.23,11.1,11.1,0,0,1-4.63,2.54h-.06a69.709,69.709,0,0,1-7.08.29,41.9,41.9,0,0,1-7.06-.61,19.113,19.113,0,0,1-3.45-.92,6.919,6.919,0,0,1-3-2,4.359,4.359,0,0,1-.77-1.65c-.17-.56-.31-1.14-.43-1.71a8.743,8.743,0,0,1-.22-1.76,2.2,2.2,0,0,1,.18-.88.56.56,0,0,1,.78-.26Zm0,0a.53.53,0,0,0-.72.26,2,2,0,0,0-.1.85,8.555,8.555,0,0,0,.31,1.71c.15.56.32,1.12.51,1.67a4,4,0,0,0,.78,1.48,7,7,0,0,0,2.88,1.73,19.064,19.064,0,0,0,3.36.78,47.569,47.569,0,0,0,7,.41c2.32,0,4.67-.12,7-.35h-.06a10.471,10.471,0,0,0,4.17-2.35,6.772,6.772,0,0,0,1.33-1.91,5.31,5.31,0,0,0,.43-2.27,4.741,4.741,0,0,0-.13-1.18,4.313,4.313,0,0,0-.3-1.1,3.289,3.289,0,0,0-1.61-1.48,12.749,12.749,0,0,0-4.77-.93,53.162,53.162,0,0,0-10,.75C646.12,939.08,642.8,939.74,639.5,940.5Z" transform="translate(819)" fill="#603813"/>
    <path id="Path_598" data-name="Path 598" d="M645.5,943.5c13-1,14,2,14,2Z" transform="translate(819)" fill="#603813"/>
    <path id="Path_599" data-name="Path 599" d="M645.5,943.5a14.031,14.031,0,0,0,1.77-.24c.65-.09,1.24-.12,1.85-.19,1.22-.08,2.44-.11,3.67-.09a19.2,19.2,0,0,1,3.68.41,9.565,9.565,0,0,1,1.82.57,5.842,5.842,0,0,1,.88.48,3.243,3.243,0,0,1,.42.35,1.519,1.519,0,0,1,.38.55l.34.78-.88-.13c-2.41-.35-4.88-.75-7.22-1.25S647.63,943.83,645.5,943.5Zm0,0c2.54.34,5,.57,7.29.76s4.52.43,6.78.75l-.54.65a.76.76,0,0,0-.15-.17,2.2,2.2,0,0,0-.28-.24,5.419,5.419,0,0,0-.71-.4,9.554,9.554,0,0,0-1.64-.54,23.764,23.764,0,0,0-3.51-.55c-1.19-.12-2.4-.18-3.6-.19-.6,0-1.24-.05-1.79-.05S646.16,943.46,645.5,943.5Z" transform="translate(819)" fill="#603813"/>
    <path id="Path_600" data-name="Path 600" d="M629.5,938.5s13-11,34-5,33,10,31,14-8,6-8,6,12,1,12-4-1-12-32-19S629.5,938.5,629.5,938.5Z" transform="translate(819)" fill="#603813"/>
    <path id="Path_601" data-name="Path 601" d="M629.5,938.5a35.61,35.61,0,0,1,18.89-6.9,40.835,40.835,0,0,1,5.11-.06l2.55.17,2.53.38c.42.07.85.12,1.26.21l1.25.29,2.49.59,4.89,1.38a192.732,192.732,0,0,1,19.37,6.3,30.994,30.994,0,0,1,4.61,2.31,8.54,8.54,0,0,1,2,1.73,3.1,3.1,0,0,1,.64,1.34,2.54,2.54,0,0,1-.25,1.52,11,11,0,0,1-3.6,3.83,20.522,20.522,0,0,1-4.64,2.37l-.11-.94a31.778,31.778,0,0,0,5.77-.13,15,15,0,0,0,2.79-.56,5.3,5.3,0,0,0,2.31-1.3A2.089,2.089,0,0,0,698,950a7.3,7.3,0,0,0,0-1.35,9.28,9.28,0,0,0-.49-2.74,10,10,0,0,0-3.32-4.46,12.234,12.234,0,0,0-1.14-.87c-.4-.27-.77-.58-1.19-.81-.85-.47-1.64-1-2.53-1.42A56.41,56.41,0,0,0,684,936c-3.65-1.39-7.41-2.48-11.18-3.52-7.54-2-15.25-3.79-23.08-3.49a31.852,31.852,0,0,0-11.43,2.15,21.368,21.368,0,0,0-5,2.92,13.781,13.781,0,0,0-3.81,4.44Zm0,0a13.819,13.819,0,0,1,3.66-4.56,21.748,21.748,0,0,1,5-3.06,31.541,31.541,0,0,1,11.51-2.42c7.91-.4,15.72,1.3,23.31,3.22,1.9.51,3.81,1,5.68,1.59.94.3,1.89.56,2.82.89l2.78,1a58.078,58.078,0,0,1,5.44,2.37c.9.4,1.74,1,2.6,1.44.44.24.83.56,1.25.84a11.7,11.7,0,0,1,1.19.91,10.85,10.85,0,0,1,3.63,4.85,10.46,10.46,0,0,1,.56,3,7.825,7.825,0,0,1-.06,1.58,3.059,3.059,0,0,1-.77,1.52,6.3,6.3,0,0,1-2.74,1.6,16.127,16.127,0,0,1-3,.6,32.18,32.18,0,0,1-6,.1l-2.31-.15,2.2-.79a20,20,0,0,0,4.4-2.23,10.091,10.091,0,0,0,3.31-3.48,1.6,1.6,0,0,0-.29-1.86,7.8,7.8,0,0,0-1.81-1.54,30,30,0,0,0-4.46-2.25c-3.11-1.3-6.31-2.38-9.53-3.42s-6.46-2-9.7-3l-4.87-1.43-2.3-.62-1.23-.3c-.41-.09-.83-.14-1.24-.22l-2.49-.4-2.52-.21a45.537,45.537,0,0,0-5.05,0,35.5,35.5,0,0,0-18.97,6.43Z" transform="translate(819)" fill="#603813"/>
    <path id="Path_602" data-name="Path 602" d="M670.5,941.5s14-1,13,6,2,3,2-2S670.5,941.5,670.5,941.5Z" transform="translate(819)" fill="#603813"/>
    <path id="Path_603" data-name="Path 603" d="M670.5,941.5a29.5,29.5,0,0,1,5.4-.09,14.917,14.917,0,0,1,5.31,1.32,5.36,5.36,0,0,1,2.18,1.87,4.43,4.43,0,0,1,.58,2.88,18.014,18.014,0,0,0-.18,2.6,3.44,3.44,0,0,0,.06.58.72.72,0,0,0,.06.17c0,.07,0-.08-.19-.06s-.07,0,0,0l.14-.19a3.177,3.177,0,0,0,.28-.52,10,10,0,0,0,.72-2.44,11.371,11.371,0,0,0,.16-1.29,5.915,5.915,0,0,0,0-1.2,2.71,2.71,0,0,0-1.46-1.68,10.531,10.531,0,0,0-2.41-.91,28.559,28.559,0,0,0-5.25-.8C674.09,941.56,672.29,941.51,670.5,941.5Zm0,0a35.86,35.86,0,0,1,10.79.27,10,10,0,0,1,2.65.89,3.59,3.59,0,0,1,2,2.24,5.75,5.75,0,0,1,0,1.48,6.477,6.477,0,0,1-.15,1.38,10.943,10.943,0,0,1-.78,2.7,4.379,4.379,0,0,1-.37.66,2.1,2.1,0,0,1-.28.34.91.91,0,0,1-.61.29.76.76,0,0,1-.7-.43,1.169,1.169,0,0,1-.16-.45,3.418,3.418,0,0,1-.09-.76,17.485,17.485,0,0,1,.23-2.75,3.6,3.6,0,0,0-.4-2.31,5,5,0,0,0-1.79-1.65,14.661,14.661,0,0,0-5-1.51,35.234,35.234,0,0,0-5.34-.39Z" transform="translate(819)" fill="#603813"/>
    <path id="Path_604" data-name="Path 604" d="M643.5,941.5s12-4,16-1,2,6,2,6,2-3,1-6S643.5,941.5,643.5,941.5Z" transform="translate(819)" fill="#603813"/>
    <path id="Path_605" data-name="Path 605" d="M643.5,941.5a47.234,47.234,0,0,1,5.62-1.69A30.057,30.057,0,0,1,655,939a11,11,0,0,1,3,.32,6.091,6.091,0,0,1,2.68,1.56,5.9,5.9,0,0,1,1.67,2.66,4.23,4.23,0,0,1-.42,3.21l-.82-.54a8.738,8.738,0,0,0,1.09-2.81,5.691,5.691,0,0,0,.11-1.48,4.672,4.672,0,0,0-.09-.74,1.505,1.505,0,0,0-.09-.35v-.18a.112.112,0,0,0-.05-.09c-.11-.24-.6-.45-1.07-.55a10.708,10.708,0,0,0-1.52-.19c-1-.05-2.11,0-3.17,0-2.13.12-4.26.37-6.39.67S645.62,941.16,643.5,941.5Zm0,0c2.08-.57,4.18-1,6.29-1.45s4.25-.75,6.41-1a23.658,23.658,0,0,1,3.27-.12,9.606,9.606,0,0,1,1.67.19,2.42,2.42,0,0,1,1.68,1,1.641,1.641,0,0,1,.19.47,2.468,2.468,0,0,0,.11.43,6.142,6.142,0,0,1,.12.86,7,7,0,0,1-.1,1.72,8.8,8.8,0,0,1-1.23,3.17l-.82-.54a3.35,3.35,0,0,0,.33-2.44,4.87,4.87,0,0,0-1.39-2.24,5.06,5.06,0,0,0-2.29-1.39,11.707,11.707,0,0,0-1.36-.29c-.47,0-.94-.12-1.42-.11a30.206,30.206,0,0,0-5.75.51A56.415,56.415,0,0,0,643.5,941.5Z" transform="translate(819)" fill="#603813"/>
    <path id="Path_606" data-name="Path 606" d="M623.5,935.5s19-22,55-12,33,21,33,21,1,9,0,9,7-1,5-8-12-19-32-25-50,0-58,8S623.5,935.5,623.5,935.5Z" transform="translate(819)" fill="#603813"/>
    <path id="Path_607" data-name="Path 607" d="M623.5,935.5a49.11,49.11,0,0,1,21.35-12.68,59,59,0,0,1,24.94-1.48,51.831,51.831,0,0,1,6.18,1.19c1,.24,2,.44,3.06.72l3,.89,3,.89,3,1c1,.36,2,.66,3,1.06l2.92,1.17a58.316,58.316,0,0,1,11.14,5.91,24.541,24.541,0,0,1,4.69,4.31,11.841,11.841,0,0,1,1.7,2.77,6.1,6.1,0,0,1,.52,3.35v-.17c.15,1.38.27,2.75.36,4.13a24.872,24.872,0,0,1,0,4.23,2.746,2.746,0,0,1-.14.61,1,1,0,0,1-.29.42.74.74,0,0,1-.43.15h-.06c-.09,0,.1,0-.22-.06-.52-.55-.14-.74-.13-.79a.519.519,0,0,1,.2-.13c.41-.14.66-.21,1-.34a8.829,8.829,0,0,0,1.73-.89,4.91,4.91,0,0,0,2.19-2.94,6.59,6.59,0,0,0-.35-3.78,19.4,19.4,0,0,0-1.7-3.64,33.222,33.222,0,0,0-5-6.38,51.939,51.939,0,0,0-13.24-9.51,68.515,68.515,0,0,0-7.51-3.28c-1.29-.47-2.6-.87-3.89-1.31l-4-1a72,72,0,0,0-16.32-1.49,96.557,96.557,0,0,0-16.36,1.67,63.538,63.538,0,0,0-15.69,4.83c-.61.31-1.24.58-1.83.94L628.56,927a22.047,22.047,0,0,0-3.09,2.71,25.6,25.6,0,0,0-2.65,3.14,4.26,4.26,0,0,0-.84,1.85.76.76,0,0,0,.5.79,2.08,2.08,0,0,0,1.02.01Zm0,0a2.07,2.07,0,0,1-1,0,.79.79,0,0,1-.54-.81,4.44,4.44,0,0,1,.82-1.89,25.7,25.7,0,0,1,2.61-3.2,22.544,22.544,0,0,1,3.07-2.78l1.74-1.13c.58-.36,1.22-.64,1.83-1a62.392,62.392,0,0,1,15.71-5.1,96.568,96.568,0,0,1,16.44-1.84,72.777,72.777,0,0,1,16.52,1.35l4,1c1.32.44,2.64.84,3.94,1.31a65.188,65.188,0,0,1,7.62,3.31,52.5,52.5,0,0,1,13.51,9.63,33.934,33.934,0,0,1,5.19,6.55,20.262,20.262,0,0,1,1.79,3.83,7.53,7.53,0,0,1,.39,4.32,6,6,0,0,1-2.61,3.54,10.3,10.3,0,0,1-1.93,1c-.32.12-.72.24-1,.32l.13-.1c.13-.1.37-.21-.12-.75h-.16s-.19,0-.19.06h0a1.728,1.728,0,0,0,.09-.39,24.663,24.663,0,0,0,0-4c-.08-1.36-.2-2.73-.34-4.09v-.17a5.381,5.381,0,0,0-.47-2.75,10.847,10.847,0,0,0-1.56-2.55,23.7,23.7,0,0,0-4.49-4.16,57.77,57.77,0,0,0-10.95-5.84L690.65,928c-1-.4-2-.7-2.93-1.06l-3-1-3-.92-3-.91c-1-.29-2-.49-3-.74a48.792,48.792,0,0,0-6.1-1.23A59.088,59.088,0,0,0,645,923.22a48.919,48.919,0,0,0-21.5,12.28Z" transform="translate(819)" fill="#603813"/>
    <path id="Path_608" data-name="Path 608" d="M695.5,918.5s35,8,33,22-8.36,14-8.36,14h13.5s3.86-20-12.14-31-26-10-26-10l-81-1V939s2-16.5,7-19.5S695.5,918.5,695.5,918.5Z" transform="translate(819)" fill="#603813"/>
    <path id="Path_609" data-name="Path 609" d="M695.5,918.5a112.775,112.775,0,0,1,14.23,4.5,54.4,54.4,0,0,1,13.13,7,17,17,0,0,1,4.88,5.59,9.53,9.53,0,0,1,.91,3.63,25.625,25.625,0,0,1-.49,3.71,26.21,26.21,0,0,1-2.38,7.07,12.19,12.19,0,0,1-2.27,3,6,6,0,0,1-3.37,1.68v-.28l13.5-.06-.19.16a35.428,35.428,0,0,0,.27-7.84,33.665,33.665,0,0,0-1.41-7.72,28.29,28.29,0,0,0-8.33-13c-1-.78-2-1.63-3.12-2.36s-2.19-1.47-3.33-2.12a71.065,71.065,0,0,0-6.95-3.69A52.919,52.919,0,0,0,703.2,915a25.858,25.858,0,0,0-7.66-1.07h0l-40.5-.45-40.5-.58.42-.41L614.8,939h-.59a71.61,71.61,0,0,1,2.53-11.67,25.074,25.074,0,0,1,2.38-5.51,7.38,7.38,0,0,1,2-2.27,2.21,2.21,0,0,1,.7-.36,3.458,3.458,0,0,1,.74-.22,12.773,12.773,0,0,1,1.48-.27,115.694,115.694,0,0,1,11.9-.74c4-.1,7.94-.14,11.92-.15C663.75,917.74,679.63,918.05,695.5,918.5Zm0,0q-11.91-.3-23.82-.46c-7.93-.1-15.87-.16-23.81-.09-4,0-7.94.11-11.91.25a116.953,116.953,0,0,0-11.85.84,13.077,13.077,0,0,0-1.44.28,3.06,3.06,0,0,0-.69.2,2.1,2.1,0,0,0-.61.32,7,7,0,0,0-1.88,2.17,25,25,0,0,0-2.29,5.43,72.4,72.4,0,0,0-2.41,11.6h-.59l-.11-26.5v-.42h.43l40.5.42,40.5.55h0a26.567,26.567,0,0,1,8,1.12,49.781,49.781,0,0,1,7.48,2.78,68.446,68.446,0,0,1,7,3.79c1.16.66,2.23,1.45,3.34,2.16s2.12,1.63,3.18,2.44a28.9,28.9,0,0,1,8.39,13.39,33.811,33.811,0,0,1,1.36,7.85,35.3,35.3,0,0,1-.34,7.95v.16h-.17l-13.5-.06v-.28a5.721,5.721,0,0,0,3.2-1.58,11.629,11.629,0,0,0,2.25-2.91,25.311,25.311,0,0,0,2.42-7,24.451,24.451,0,0,0,.5-3.68,9.571,9.571,0,0,0-.88-3.57,17.109,17.109,0,0,0-4.83-5.57,54.407,54.407,0,0,0-13.09-7,112.2,112.2,0,0,0-14.33-4.58Z" transform="translate(819)" fill="#603813"/>
    <rect id="Rectangle_494" data-name="Rectangle 494" width="3" height="31" transform="translate(1564.5 940.5)" fill="#603813"/>
    <path id="Path_610" data-name="Path 610" d="M748.5,971.5l-3,.1h-.1v-.1c-.06-2.58-.15-5.17-.18-7.75l-.13-7.75L745,940.5V940h4v.48c0,5.22,0,10.46-.15,15.64S748.63,966.46,748.5,971.5Zm0,0-.33-15.64c-.13-5.16-.11-10.24-.15-15.36l.48.48h-3l.5-.5-.09,15.5-.13,7.75c0,2.58-.12,5.17-.18,7.75l-.1-.1Z" transform="translate(819)" fill="#603813"/>
    <rect id="Rectangle_495" data-name="Rectangle 495" width="2" height="31" transform="translate(1440.5 940.5)" fill="#603813"/>
    <path id="Path_611" data-name="Path 611" d="M623.5,971.5l-2,.07h-.07v-.08c-.17-5.17-.25-10.33-.33-15.5l-.06-7.75V940h3v.49c0,5.22,0,10.46-.15,15.64S623.64,966.47,623.5,971.5Zm0,0c-.14-5.3-.25-10.49-.34-15.64s-.11-10.24-.15-15.36l.49.49h-2l.5-.5v7.75l-.1,7.76c-.08,5.17-.16,10.33-.33,15.5l-.07-.07Z" transform="translate(819)" fill="#603813"/>
    <rect id="Rectangle_496" data-name="Rectangle 496" width="2" height="31" transform="translate(1495.5 925.5)" fill="#603813"/>
    <path id="Path_612" data-name="Path 612" d="M678.5,956.5l-2,.07h-.07v-.08c-.17-5.17-.25-10.33-.33-15.5l-.06-7.75V925h3v.49c0,5.22,0,10.46-.15,15.64S678.64,951.47,678.5,956.5Zm0,0c-.14-5.3-.25-10.49-.34-15.64s-.11-10.24-.15-15.36l.49.49h-2l.5-.5v7.75l-.1,7.76c-.08,5.17-.16,10.33-.33,15.5l-.07-.07Z" transform="translate(819)" fill="#603813"/>
    <rect id="Rectangle_497" data-name="Rectangle 497" width="2" height="31" transform="translate(1597.5 890.5)" fill="#603813"/>
    <path id="Path_613" data-name="Path 613" d="M780.5,921.5l-2,.07h-.07v-.08c-.17-5.17-.25-10.33-.33-15.5l-.06-7.75V890h3v.49c0,5.22,0,10.46-.15,15.64S780.64,916.47,780.5,921.5Zm0,0c-.14-5.3-.25-10.49-.34-15.64s-.11-10.24-.15-15.36l.49.49h-2l.5-.5v7.75l-.1,7.76c-.08,5.17-.16,10.33-.33,15.5l-.07-.07Z" transform="translate(819)" fill="#603813"/>
    <rect id="Rectangle_498" data-name="Rectangle 498" width="2" height="31" transform="translate(1614.5 812.5)" fill="#603813"/>
    <path id="Path_614" data-name="Path 614" d="M797.5,843.5l-2,.07h-.07v-.08c-.17-5.17-.25-10.33-.33-15.5l-.06-7.75V812h3v.49c0,5.22,0,10.46-.15,15.64S797.64,838.47,797.5,843.5Zm0,0c-.14-5.3-.25-10.49-.34-15.64s-.11-10.24-.15-15.36l.49.49h-2l.5-.5v7.75l-.1,7.76c-.08,5.17-.16,10.33-.33,15.5l-.07-.07Z" transform="translate(819)" fill="#603813"/>
    <rect id="Rectangle_499" data-name="Rectangle 499" width="2" height="31" transform="translate(1656.5 765.5)" fill="#603813"/>
    <path id="Path_615" data-name="Path 615" d="M839.5,796.5l-2,.07h-.07v-.08c-.17-5.17-.25-10.33-.33-15.5l-.06-7.75V765h3v.49c0,5.22,0,10.46-.15,15.64S839.64,791.47,839.5,796.5Zm0,0c-.14-5.3-.25-10.49-.34-15.64s-.11-10.24-.15-15.36l.49.49h-2l.5-.5v7.75l-.1,7.76c-.08,5.17-.16,10.33-.33,15.5l-.07-.07Z" transform="translate(819)" fill="#603813"/>
    <rect id="Rectangle_500" data-name="Rectangle 500" width="2" height="31" transform="translate(1577.5 785.5)" fill="#603813"/>
    <path id="Path_616" data-name="Path 616" d="M760.5,816.5l-2,.07h-.07v-.08c-.17-5.17-.25-10.33-.33-15.5l-.06-7.75V785h3v.49c0,5.22,0,10.46-.15,15.64S760.64,811.47,760.5,816.5Zm0,0c-.14-5.3-.25-10.49-.34-15.64s-.11-10.24-.15-15.36l.49.49h-2l.5-.5v7.75l-.1,7.76c-.08,5.17-.16,10.33-.33,15.5l-.07-.07Z" transform="translate(819)" fill="#603813"/>
    <path id="Path_617" data-name="Path 617" d="M532.5,708.5s-21,52-3,43,8,1,8,1-3,9-21,17S522.5,713.5,532.5,708.5Z" transform="translate(819)" fill="#c98c9b"/>
    <path id="Path_618" data-name="Path 618" d="M905,504v32s-4,10-15,10-25-4-29-11-2-31-2-31Z" transform="translate(819)" fill="#fcbc40" opacity="0.5"/>
    <path id="Path_619" data-name="Path 619" d="M522,709s-43,86-39,115,12.5,21.5,12.5,78.5-3,41-3,41-8,8-4,10,8,3,17,2-5-9-5-9-3-8,2-7c4.79,1,9.64,9.39,10,10,6.18,10.62,35.56,7.74,42,7,3.15-.36,5.66-.77,7-1,0,0,4-5,0-6s-16,0-16,0-15,0-15-4-16-27-18-52,3.11-114,3.11-114Z" transform="translate(819)" fill="#f8988a"/>
    <path id="Path_620" data-name="Path 620" d="M418.5,949.5s-20-20-24-33a95.249,95.249,0,0,1-4-25s4-8,11-9,23-49,23-49,25-36.78,34.49-38.89,2.51,21.89,2.51,21.89-45,52-51,70S405.5,922.5,418.5,949.5Z" transform="translate(819)" fill="#c98c9b"/>
    <path id="Path_621" data-name="Path 621" d="M461.94,742s-29.44,21.5-34.44,49.5,0,16,0,16S439.38,763.52,461.94,742Z" transform="translate(819)" fill="#c98c9b"/>
    <path id="Path_622" data-name="Path 622" d="M537,654.79s-1.5-20.29-11.5-20.29-16,26-16,26,2,11-3,31-23.7,1.42-32.85,37.71S460.5,769.5,463.5,791.5s-9.75-9.16-6.37-23.08,8.59-40.92,20-61.92l11.39-21s-13.71,15.29-20.36,9.14,18-74,18-74l14.36,6.89s18-1,22.51,1S541.51,643.08,537,654.79Z" transform="translate(819)" fill="#ab8698"/>
    <path id="Path_623" data-name="Path 623" d="M337.5,957.5s13-2,17-11-12-5-17,0S330.5,959.5,337.5,957.5Z" transform="translate(819)" fill="#fff"/>
    <path id="Path_624" data-name="Path 624" d="M381.5,941.5s25,11,24,20S400.5,949.5,381.5,941.5Z" transform="translate(819)" fill="#fff"/>
    <path id="Path_625" data-name="Path 625" d="M437.5,745.5h-167v-12h32s12-33,51-34,55,9,65,14S440.5,726.5,437.5,745.5Z" transform="translate(819)" fill="#333743"/>
    <path id="Path_626" data-name="Path 626" d="M309.5,738.5h118s7-12-6-16-11,8-11,8,6,2,7,0,12,0,8,4S314.5,737.5,309.5,738.5Z" transform="translate(819)" fill="#fff"/>
    <path id="Path_627" data-name="Path 627" d="M296.5,706.5s2-22,25-29,39-2,55-11,45-32,51-39,11,0,22,0,38-7,44-13,7.11,13,7.11,13-5.11-14-9.11-5-22,45-21,64,.84,42.71.84,42.71-30.75-10.2-44.79-11S356.5,722.5,326.5,714.5,305.5,719.5,296.5,706.5Z" transform="translate(819)" fill="#2279bc"/>
    <path id="Path_628" data-name="Path 628" d="M427.5,651.5s26-6,34-9c17.43-6.54,28.94-25.49,35.19-21.89A13.93,13.93,0,0,1,500,624s-2.7-2.71-3-3C493.86,618,478.7,622.06,427.5,651.5Z" transform="translate(819)" fill="url(#linear-gradient-4)"/>
    <path id="Path_629" data-name="Path 629" d="M355.14,672.43s-9.64,6.07-17.64,9.07,30-3,39,3,27,8,29,15,28,4,28,4-2,4,14,6,23.73.37,23.73.37l.27,19.63-26.08-7.82-24.21-3.5s-30.71.52-39.71.92-36.33-1.4-36.33-1.4l-31.95-5.81-9.85.54s-14.21-4.21-1-21.07S344.77,666.35,355.14,672.43Z" transform="translate(819)" fill="#1b4994"/>
    <path id="Path_630" data-name="Path 630" d="M317.5,712.5s-1-18,38-22,0-5,0-5S318.5,688.5,317.5,712.5Z" transform="translate(819)" fill="#2279bc"/>
    <path id="Path_631" data-name="Path 631" d="M486.49,629.78s-28.5,20.8-37.61,21.74a115.608,115.608,0,0,1-19.38,0S493.33,620.33,486.49,629.78Z" transform="translate(819)" fill="#1b4994"/>
    <path id="Path_632" data-name="Path 632" d="M366.5,671.27s33,22.23,44,6.23,16-14,17-26-22-5.08-22-5.08Z" transform="translate(819)" fill="#1b4994"/>
    <path id="Path_633" data-name="Path 633" d="M345.5,663.5s11-140,21-166,61.22-109,77.11-120,6.89,8,6.89,8,8,33,3,49-25,54-48,71-14,62-14,62l9,60Z" transform="translate(819)" fill="#f26667"/>
    <path id="Path_634" data-name="Path 634" d="M291.5,654.5s25,15,38,4,54-46,64-45-4-46-4-46,24,0,48-36,17-55,17-55l11.61,41.76h10.48l-14.65,6.28s-23.34,30-32.89,35.46-19.49,27.75-21.52,34.13-9.35,24.23,5.31,28.8,24.66,6.57,24.66,6.57-53,51-71,49-58,13-61,21-9.61,4-9.61,4-13.53-38.11-8.46-48.56S291.5,654.5,291.5,654.5Z" transform="translate(819)" fill="#f35957"/>
    <path id="Path_635" data-name="Path 635" d="M504.5,320.5s-47,22-54,31,0,56,0,56-1,75,1,82-3,19,5,29,23,1,23,0-22,7-13-21,14-44,19-48,0-29-3-37-8.11-45.22-6.56-49.11-18.44,2.11-14.44-3.89S482.5,333.5,504.5,320.5Z" transform="translate(819)" fill="#d55459"/>
    <path id="Path_636" data-name="Path 636" d="M560.9,397.69s11.6,3.81,27.6-2.19,29-10,29-10a153.841,153.841,0,0,1-17,26c-10,12-10.81,24-21.91,30.5s-50.09,39.5-50.09,39.5Z" transform="translate(819)" fill="#c57f97"/>
    <path id="Path_637" data-name="Path 637" d="M473.91,493.75S494.5,404.5,500.5,395.5s18-31,18-31,7,71.1,0,86.55S473.91,493.75,473.91,493.75Z" transform="translate(819)" fill="#ee784a"/>
    <path id="Path_638" data-name="Path 638" d="M552.37,382.9c.67-1.24,1.25-2.25,1.63-2.9l5.77-10.21c16.12-28.4,26.92-40.85,24.23-51.79-4.88-19.82-51.48-24.18-51-26,.23-.87,10.55,1,19.63,3.13,15.4,3.54,23.1,5.31,27.37,8.87,11.58,9.64,8.68,30.87,7.5,39.5-6.47,47.34-24.92,66.39-35.61,102.91-15.75,53.8.5,96.18-2.89,96.59-3.94.47-14-58.43-12-101C537.83,424.63,541,403.82,552.37,382.9Z" transform="translate(819)" fill="#add3bc"/>
    <path id="Path_639" data-name="Path 639" d="M556.5,328.5s-23,26-30,41-13,52-13,52l-6.17,29.43L546,436a504.155,504.155,0,0,0,25-58c9-25.05,20.84-58.12,12.5-63.5C580.33,312.46,573.32,313.81,556.5,328.5Z" transform="translate(819)" fill="#f46f5c"/>
    <path id="Path_640" data-name="Path 640" d="M516,450.05s-13,18.45-14,30.45,0,49,0,49l3,32s1,10,5,16,15,31,19,32,32-14,32-14,7-5,17-12,27-29,27-29h0s0-.4-1-7.5l5,3c-12.2,27.41-25.65,38.77-36,44-3.51,1.77-10.72,4.89-21,11a214.512,214.512,0,0,0-22,15c-3.4-4.32-8.24-10.79-13.5-19-5.66-8.83-9.37-16.42-17-31-11-21-16.5-31.52-19-38-6.26-16.24-9.95-25.79-9-39,.53-7.35,1.82-25.31,16.32-35.93C498.9,449,511.57,449.61,516,450.05Z" transform="translate(819)" fill="#c57f97"/>
    <path id="Path_641" data-name="Path 641" d="M521.61,515.29s.89,37,17.89,39.11,11.12.62,11.12.62-7-22.33-7.07-45.43,2.5-68.72,2.5-68.72-27.87,3.65-27.71,7.14S515.72,501.08,521.61,515.29Z" transform="translate(819)" fill="#b8c0ab" opacity="0.8"/>
    <path id="Path_642" data-name="Path 642" d="M556.5,559.5s67-28,72-27-21,23-21,23A154.671,154.671,0,0,1,583,579c-7.94,6.07-8.45,5.19-26,17-15.43,10.38-16.51,12.06-20,12-13.73-.22-23.6-26.59-29-41-7.22-19.29-19.48-52-7.5-85.5,4-11.3,13.92-31.31,19.06-29.87a3.33,3.33,0,0,1,1.94,1.87s3,82,10,86S544.5,564.5,556.5,559.5Z" transform="translate(819)" fill="#ff8c8d"/>
    <path id="Path_643" data-name="Path 643" d="M544.77,467.83s58.43-33.56,122.08-40.44l63.65-6.89-33-8s-51,1-59,4-55,24-55,24-20,10-27,15-20,18-20,18Z" transform="translate(819)" fill="#99e8c8" opacity="0.7"/>
    <path id="Path_644" data-name="Path 644" d="M550.5,533.5s-3.57-5.65,14.71-10.32a160.1,160.1,0,0,1,35.29-4.68h14S559.5,524.5,550.5,533.5Z" transform="translate(819)" fill="#db8c8f"/>
    <path id="Path_645" data-name="Path 645" d="M554.2,541.36l-7.7,4.14s-2,9,8,6,16-13,34-18,27-9,36-15S561.91,539.21,554.2,541.36Z" transform="translate(819)" fill="#ffa188"/>
    <path id="Path_646" data-name="Path 646" d="M703.5,390.5s8,5,14,0,4,0,4,0l-4,7s0,6,4,5-3,4-3,4-18-18-23-13,0,9,0,9-16-3-18-12-12-5-11-2-5,2-5,2-9-7-8-15-2.29-11.22,1.86-16.11,29.54-8.76,29.54-8.76.6,10.87,6.6,8.87,14.75-3.86,15.88,1.07S710.5,384.5,703.5,390.5Z" transform="translate(819)" fill="#fe8d85"/>
    <path id="Path_647" data-name="Path 647" d="M334.86,712.18s-.71-10.79,26.88-13.18,0-3,0-3S335.56,697.8,334.86,712.18Z" transform="translate(819)" fill="#2279bc"/>
    <path id="Path_648" data-name="Path 648" d="M471,729s-7-45-3-58c1.75-5.69,7-17.78,12.53-29.43.75-1.57,1.49-3.13,2.24-4.67,6.35-13.1,12.45-24.41,13.38-23.57C498,615,501,627,501,627l-4-6s-6.33-5-18.17,30.5S471,729,471,729Z" transform="translate(819)" fill="#1b4994"/>
    <path id="Path_649" data-name="Path 649" d="M641.61,355.89c-.61-3.89-3.69-2.07-3.69-2.07s-2.08,7.11,0,10.14,1.08,7,1.08,9,1.33-7.22.66-10.61S638,356,639,356,641.61,355.89,641.61,355.89Z" transform="translate(819)" fill="#a27793"/>
    <path id="Path_650" data-name="Path 650" d="M641.61,360.86c.95-4.52,1.39,8.14,1.39,8.14S641.22,362.72,641.61,360.86Z" transform="translate(819)" fill="#a27793"/>
    <path id="Path_651" data-name="Path 651" d="M638,376v5s4-3,5-5-2.4,4.63-3.7,2.32Z" transform="translate(819)" fill="#a27793"/>
    <circle id="Ellipse_155" data-name="Ellipse 155" cx="4" cy="4" r="4" transform="translate(1513 339)"/>
    <path id="Path_652" data-name="Path 652" d="M645.5,362.5s59-19,61-16,0,16,0,16,5.13,2,5.06,0,9.94-33,9.94-33h-10l-2,11s-65,15-71,17S645.5,362.5,645.5,362.5Z" transform="translate(819)" fill="#fff"/>
    <path id="Path_653" data-name="Path 653" d="M626,516.44S624,520,638,513s14-9,24-9c8.06,0,11,.27,14.33-2a10.88,10.88,0,0,0,3.67-4c1.53-3,.94-5.74,3-7,.94-.58,2-.56,2-1s-1-1.14-2-1c-2.14.32-3.47,4.75-3.47,4.75h0l-2,4.45A8.062,8.062,0,0,1,675,501a7.85,7.85,0,0,1-2,1c-2.87,1-5.58.28-9,0a39.715,39.715,0,0,0-6,0,44.121,44.121,0,0,0-11,2c-3.48,1.16-5.75,2.48-10,5a111.779,111.779,0,0,0-11,7.44Z" transform="translate(819)" fill="#c57f97"/>
    <path id="Path_654" data-name="Path 654" d="M707,539s5,5,4-2a64.152,64.152,0,0,0-4-14s6.5,12.5,5.5,14.5.42,4.46,2.21,3.23,1.79-8.23-.21-13.23l-4-10s10,13,8,17,2.52,2.65,2.52,2.65,6.48-5.65-2.52-18.65-6-8-6-8,12,12.62,11.49,14.81-.49,11.19-5.49,13.19S715.5,543.5,707,539Z" transform="translate(819)" fill="#c57f97"/>
    <path id="Path_655" data-name="Path 655" d="M683,491s2,0,2,5-3,10-9,14,14,1,14,1c.35,0,.87-.07,1.5-.13a41.081,41.081,0,0,0,6.83-1.28c5.92-1.57,8.88-2.36,11.67-1.59,5.82,1.61,10,9,10,9h0s4,12,2.49,16.5a4.262,4.262,0,0,0-.17,1.27A27.381,27.381,0,0,0,724,527a21.515,21.515,0,0,0,0-4.64,19.253,19.253,0,0,0-1-4.36,22.5,22.5,0,0,0-3.35-5.66,27.781,27.781,0,0,0-3.24-3.92,8.64,8.64,0,0,0-9.41-2.17A135.818,135.818,0,0,1,690,510c-5.62.86-12.89,1.6-13,1,0-.27,1.45-.49,3.29-1.45,3.53-1.83,7.11-5.76,7.71-10.55.5-4-1-8.72-3-9a2.54,2.54,0,0,0-2,1Z" transform="translate(819)" fill="#add3bc"/>
  </g>
</svg>
